<svg width="84" height="69" viewBox="0 0 84 69" fill="none" xmlns="http://www.w3.org/2000/svg">
<g clip-path="url(#clip0_2025_257)">
<path fill-rule="evenodd" clip-rule="evenodd" d="M23.1532 54.1924C23.1532 54.1924 20.365 62.0073 21.0971 65.0045C21.7021 67.4844 24.1812 69.019 26.6275 68.4274C29.0825 67.8336 30.5708 65.3363 29.9658 62.8587C29.2337 59.8593 23.1532 54.1924 23.1532 54.1924Z" fill="#38A1E8"/>
<path fill-rule="evenodd" clip-rule="evenodd" d="M40.744 53.958C40.744 53.958 37.9558 61.773 38.6879 64.7723C39.2929 67.25 41.772 68.7846 44.2183 68.193C46.6733 67.5992 48.1616 65.102 47.5566 62.6243C46.8245 59.6249 40.744 53.958 40.744 53.958Z" fill="#38A1E8"/>
<path fill-rule="evenodd" clip-rule="evenodd" d="M59.0228 53.7148C59.0228 53.7148 56.2346 61.5298 56.9668 64.527C57.5717 67.0068 60.0509 68.5414 62.4971 67.9498C64.9521 67.3561 66.4404 64.8588 65.8333 62.3811C65.1011 59.3818 59.0228 53.7148 59.0228 53.7148Z" fill="#38A1E8"/>
<path fill-rule="evenodd" clip-rule="evenodd" d="M12.6477 23.0254C5.675 23.0254 0 28.7317 0 35.7477C0 42.7593 5.675 48.4677 12.6477 48.4677H67.6375C76.3923 48.4677 83.5118 41.3033 83.5118 32.4972C83.5118 23.6912 76.3923 16.5268 67.6375 16.5268C66.0089 16.5268 64.389 16.78 62.8284 17.2755L61.8113 17.6008L61.4518 16.5879C58.0915 7.08336 49.1088 0.698242 39.1025 0.698242C26.8691 0.698242 16.7159 9.91901 15.4841 22.1457L15.3701 23.2787L14.2478 23.1389C13.6253 23.0604 13.1167 23.0254 12.6477 23.0254Z" fill="#D6E3F2"/>
</g>
<defs>
<clipPath id="clip0_2025_257">
<rect width="84" height="69" fill="white"/>
</clipPath>
</defs>
</svg>
