<svg width="70" height="69" viewBox="0 0 70 69" fill="none" xmlns="http://www.w3.org/2000/svg">
<path fill-rule="evenodd" clip-rule="evenodd" d="M35.5778 19.0601C44.2094 19.0667 51.2007 26.0673 51.194 34.6967C51.1873 43.326 44.185 50.3154 35.5533 50.3088C26.9216 50.3021 19.9303 43.3016 19.937 34.6722C19.9437 26.0428 26.9461 19.0534 35.5778 19.0601" fill="#F9C900"/>
<path fill-rule="evenodd" clip-rule="evenodd" d="M31.8508 55.5247C31.8508 55.7117 31.8264 55.903 31.7752 56.0922L29.1821 65.7385C28.8683 66.9067 27.6663 67.601 26.4978 67.2872C25.3292 66.9735 24.6348 65.7719 24.9508 64.6014L27.5439 54.9551C27.8577 53.7868 29.0597 53.0948 30.2282 53.4086C31.2076 53.6711 31.8508 54.5568 31.8508 55.5247" fill="#F9C900"/>
<path fill-rule="evenodd" clip-rule="evenodd" d="M20.9945 51.5643C20.9945 52.154 20.7564 52.7437 20.289 53.1754L12.9416 59.9423C12.0513 60.7634 10.6646 60.7055 9.84548 59.8154C9.02416 58.9276 9.07981 57.5413 9.97013 56.7201L17.3175 49.951C18.2078 49.1322 19.5945 49.19 20.4136 50.0779C20.8031 50.5007 20.9945 51.0325 20.9945 51.5643" fill="#F9C900"/>
<path fill-rule="evenodd" clip-rule="evenodd" d="M15.0562 40.9286C15.0562 41.9032 14.3996 42.7911 13.4136 43.047L3.74025 45.5459C2.56725 45.8485 1.37199 45.1454 1.06928 43.9727C0.76657 42.8022 1.46993 41.6073 2.64293 41.3046L12.3163 38.8035C13.4871 38.5009 14.6823 39.2063 14.985 40.3767C15.034 40.5614 15.0562 40.7461 15.0562 40.9286" fill="#F9C900"/>
<path fill-rule="evenodd" clip-rule="evenodd" d="M15.364 28.6558C15.364 28.8361 15.3417 29.0185 15.295 29.201C14.9923 30.3737 13.797 31.0791 12.6262 30.7765L2.95067 28.2864C1.77767 27.986 1.07209 26.7911 1.3748 25.6206C1.67528 24.448 2.87054 23.7426 4.04354 24.0452L13.7191 26.5352C14.7074 26.7889 15.364 27.679 15.364 28.6558" fill="#F9C900"/>
<path fill-rule="evenodd" clip-rule="evenodd" d="M20.9401 17.9893C20.9401 18.5368 20.7353 19.0864 20.3236 19.5114C19.4822 20.3792 18.0933 20.4037 17.2252 19.5603L10.047 12.6132C9.17895 11.7721 9.15447 10.3836 9.99805 9.51573C10.8394 8.64567 12.2261 8.62342 13.0964 9.46455L20.2724 16.4139C20.7175 16.8434 20.9401 17.4152 20.9401 17.9893" fill="#F9C900"/>
<path fill-rule="evenodd" clip-rule="evenodd" d="M31.12 11.8987C31.12 12.8778 30.4567 13.7702 29.464 14.0194C28.291 14.3153 27.1002 13.6033 26.8042 12.4306L24.3624 2.74421C24.0664 1.5693 24.7787 0.381033 25.9517 0.0850794C27.1247 -0.210874 28.3155 0.501195 28.6115 1.67388L31.0532 11.3602C31.0977 11.5405 31.12 11.7207 31.12 11.8987" fill="#F9C900"/>
<path fill-rule="evenodd" clip-rule="evenodd" d="M45.7891 2.9261C45.7891 3.11079 45.7646 3.29771 45.7157 3.4824L43.176 13.1443C42.8689 14.3125 41.6714 15.0135 40.5006 14.7042C39.3298 14.3971 38.6309 13.1977 38.9381 12.0295L41.4777 2.36979C41.7849 1.19933 42.9846 0.500613 44.1554 0.807693C45.1392 1.06582 45.7891 1.95368 45.7891 2.9261" fill="#F9C900"/>
<path fill-rule="evenodd" clip-rule="evenodd" d="M61.678 11.267C61.678 11.8789 61.422 12.4864 60.9257 12.9181L53.3869 19.4758C52.4743 20.268 51.0898 20.1723 50.2952 19.26C49.5006 18.3476 49.5963 16.9635 50.5111 16.1691L58.0477 9.61366C58.9625 8.81926 60.3448 8.91494 61.1394 9.82728C61.5022 10.2434 61.678 10.7574 61.678 11.267" fill="#F9C900"/>
<path fill-rule="evenodd" clip-rule="evenodd" d="M69.4471 25.8865C69.4471 26.8478 68.8083 27.7289 67.8357 27.996L58.2001 30.6395C57.0338 30.9599 55.8274 30.2724 55.5069 29.1063C55.1864 27.9381 55.8742 26.7343 57.0405 26.4138L66.676 23.7703C67.8423 23.4521 69.0487 24.1374 69.3692 25.3035C69.4227 25.4993 69.4471 25.6951 69.4471 25.8865" fill="#F9C900"/>
<path fill-rule="evenodd" clip-rule="evenodd" d="M69.2815 42.9654C69.2815 43.1456 69.2592 43.3281 69.2125 43.5106C68.9098 44.6833 67.7145 45.3887 66.5437 45.086L56.8681 42.596C55.6951 42.2956 54.9896 41.1007 55.2923 39.9302C55.5928 38.7575 56.788 38.0521 57.961 38.3548L67.6366 40.8448C68.6249 41.0984 69.2815 41.9885 69.2815 42.9654" fill="#F9C900"/>
<path fill-rule="evenodd" clip-rule="evenodd" d="M61.099 58.0062C61.099 58.5736 60.8786 59.1432 60.4401 59.5705C59.5743 60.4161 58.1876 60.4005 57.3418 59.5349L50.3572 52.3942C49.5114 51.5286 49.5248 50.1422 50.3906 49.2967C51.2565 48.4511 52.6431 48.4667 53.4889 49.33L60.4735 56.473C60.892 56.9002 61.099 57.4521 61.099 58.0062" fill="#F9C900"/>
<path fill-rule="evenodd" clip-rule="evenodd" d="M46.0139 66.0846C46.0139 67.0503 45.3684 67.9337 44.3913 68.1963C43.2228 68.5123 42.0208 67.8202 41.707 66.652L39.1073 57.0079C38.7912 55.8397 39.4834 54.6358 40.652 54.3221C41.8205 54.0061 43.0224 54.6981 43.3385 55.8664L45.9383 65.5127C45.9894 65.7041 46.0139 65.8954 46.0139 66.0846" fill="#F9C900"/>
</svg>
