<svg width="100" height="56" viewBox="0 0 100 56" fill="none" xmlns="http://www.w3.org/2000/svg">
<g clip-path="url(#clip0_2027_2)">
<path fill-rule="evenodd" clip-rule="evenodd" d="M88.6201 20.0382C94.5571 20.0382 99.387 24.9063 99.387 30.894C99.387 36.8776 94.5571 41.7456 88.6201 41.7456H41.8071C34.3571 41.7456 28.2944 35.6328 28.2944 28.1195C28.2944 20.6062 34.3571 14.4934 41.8071 14.4934C43.1945 14.4934 44.5736 14.7087 45.9011 15.1332L46.769 15.41L47.0741 14.5467C49.9353 6.43667 57.5812 0.988281 66.099 0.988281C76.5134 0.988281 85.1569 8.85431 86.2062 19.2877L86.3031 20.2535L87.2596 20.1346C87.7873 20.0689 88.2202 20.0382 88.6201 20.0382" fill="#BAC6D1"/>
<path fill-rule="evenodd" clip-rule="evenodd" d="M11.8945 31.3308C5.33704 31.3308 0 36.691 0 43.2816C0 49.868 5.33704 55.2303 11.8945 55.2303H63.6096C71.8429 55.2303 78.5384 48.5003 78.5384 40.2282C78.5384 31.9562 71.8429 25.2262 63.6096 25.2262C62.0779 25.2262 60.5545 25.4641 59.0868 25.9295L58.1303 26.2351L57.7922 25.2836C54.632 16.3554 46.1843 10.3574 36.7739 10.3574C25.269 10.3574 15.7205 19.0191 14.5619 30.5044L14.4548 31.5686L13.3993 31.4374C12.8139 31.3636 12.3356 31.3308 11.8945 31.3308" fill="#D6E3F2"/>
</g>
<defs>
<clipPath id="clip0_2027_2">
<rect width="100" height="56" fill="white"/>
</clipPath>
</defs>
</svg>
