<svg width="100" height="66" viewBox="0 0 100 66" fill="none" xmlns="http://www.w3.org/2000/svg">
<g clip-path="url(#clip0_2025_173)">
<path fill-rule="evenodd" clip-rule="evenodd" d="M30.2733 16.5176C37.831 16.5233 43.9522 22.5957 43.9464 30.0814C43.9406 37.5671 37.8099 43.63 30.2522 43.6242C22.6945 43.6185 16.5733 37.5462 16.5791 30.0604C16.5849 22.5747 22.7156 16.5119 30.2733 16.5176Z" fill="#F9C900"/>
<path fill-rule="evenodd" clip-rule="evenodd" d="M27.0109 48.1471C27.0109 48.311 26.9898 48.4748 26.9455 48.6405L24.6744 57.0081C24.3994 58.0214 23.3475 58.6214 22.3244 58.349C21.2994 58.0767 20.6936 57.0348 20.9686 56.0214L23.2398 47.6538C23.5148 46.6405 24.5667 46.0405 25.5898 46.311C26.4475 46.5395 27.0109 47.309 27.0109 48.1471Z" fill="#F9C900"/>
<path fill-rule="evenodd" clip-rule="evenodd" d="M17.5055 44.7114C17.5055 45.2238 17.2978 45.7343 16.8862 46.1076L10.4535 51.98C9.67469 52.6905 8.46122 52.6409 7.74392 51.8695C7.02469 51.0981 7.07469 49.8962 7.85353 49.1838L14.2862 43.3133C15.067 42.6028 16.2805 42.6505 16.9978 43.4238C17.3381 43.7876 17.5055 44.2505 17.5055 44.7114Z" fill="#F9C900"/>
<mask id="mask0_2025_173" style="mask-type:luminance" maskUnits="userSpaceOnUse" x="0" y="33" width="13" height="7">
<path fill-rule="evenodd" clip-rule="evenodd" d="M0 33.583V39.5527H12.3067V33.583L0 33.583L0 33.583Z" fill="white"/>
</mask>
<g mask="url(#mask0_2025_173)">
<path fill-rule="evenodd" clip-rule="evenodd" d="M12.3066 35.486C12.3066 36.3317 11.7316 37.1012 10.8681 37.3222L2.39889 39.4917C1.37389 39.7546 0.325808 39.1432 0.0604234 38.1279C-0.203038 37.1127 0.412346 36.0746 1.43927 35.8117L9.9085 33.6441C10.9335 33.3812 11.9797 33.9908 12.245 35.0079C12.2873 35.1679 12.3066 35.3279 12.3066 35.486Z" fill="#F9C900"/>
</g>
<path fill-rule="evenodd" clip-rule="evenodd" d="M12.576 24.8405C12.576 24.9967 12.5567 25.1548 12.5144 25.3148C12.251 26.33 11.2048 26.9414 10.1798 26.6805L1.70673 24.5205C0.681729 24.2595 0.0644211 23.2214 0.327883 22.2062C0.591344 21.191 1.6375 20.5795 2.66442 20.8405L11.1356 23.0005C12.001 23.2214 12.576 23.9929 12.576 24.8405Z" fill="#F9C900"/>
<path fill-rule="evenodd" clip-rule="evenodd" d="M17.4581 15.5882C17.4581 16.0644 17.2792 16.5406 16.9177 16.9082C16.1812 17.6625 14.9658 17.6816 14.2042 16.952L7.92155 10.9235C7.16001 10.194 7.14078 8.99205 7.87732 8.23776C8.61386 7.48348 9.82924 7.46443 10.5908 8.19395L16.8735 14.2206C17.2639 14.594 17.4581 15.0911 17.4581 15.5882Z" fill="#F9C900"/>
<path fill-rule="evenodd" clip-rule="evenodd" d="M26.3705 10.3052C26.3705 11.1547 25.7897 11.9281 24.9205 12.1452C23.8935 12.4023 22.8493 11.7852 22.5916 10.7662L20.4532 2.36425C20.1955 1.3452 20.8185 0.314725 21.8455 0.0575819C22.8724 -0.197656 23.9166 0.419487 24.1743 1.43663L26.3128 9.83853C26.3512 9.99473 26.3705 10.1509 26.3705 10.3052Z" fill="#F9C900"/>
<path fill-rule="evenodd" clip-rule="evenodd" d="M39.2138 2.52196C39.2138 2.68196 39.1926 2.84387 39.1503 3.00577L36.9273 11.3848C36.658 12.4001 35.608 13.0058 34.583 12.7391C33.56 12.4724 32.9465 11.4324 33.2157 10.4191L35.4388 2.03815C35.708 1.02482 36.758 0.417202 37.783 0.683869C38.6446 0.908631 39.2138 1.67815 39.2138 2.52196Z" fill="#F9C900"/>
<path fill-rule="evenodd" clip-rule="evenodd" d="M53.1249 9.75773C53.1249 10.2873 52.9018 10.8149 52.4653 11.1901L45.8653 16.8777C45.0672 17.5654 43.8537 17.4815 43.1595 16.6911C42.4633 15.8987 42.5479 14.6987 43.3479 14.0092L49.9479 8.32345C50.746 7.63392 51.9576 7.71773 52.6537 8.51011C52.971 8.87012 53.1249 9.31583 53.1249 9.75773Z" fill="#F9C900"/>
<path fill-rule="evenodd" clip-rule="evenodd" d="M59.9268 22.4389C59.9268 23.2732 59.3671 24.037 58.5152 24.2693L50.0806 26.5608C49.0575 26.8389 48.0018 26.2446 47.7229 25.2312C47.4421 24.2179 48.0421 23.1741 49.0652 22.896L57.4998 20.6046C58.5229 20.3265 59.5768 20.9208 59.8575 21.9341C59.9037 22.1017 59.9268 22.2712 59.9268 22.4389Z" fill="#F9C900"/>
<path fill-rule="evenodd" clip-rule="evenodd" d="M59.7817 37.2526C59.7817 37.4088 59.7624 37.5669 59.7201 37.7269C59.4567 38.7421 58.4105 39.3535 57.3855 39.0926L48.9124 36.9326C47.8874 36.6716 47.2682 35.6355 47.5336 34.6183C47.7971 33.6031 48.8432 32.9916 49.8701 33.2526L58.3413 35.4126C59.2067 35.6335 59.7817 36.405 59.7817 37.2526Z" fill="#F9C900"/>
<path fill-rule="evenodd" clip-rule="evenodd" d="M52.6178 50.2994C52.6178 50.7927 52.4255 51.2842 52.0409 51.6556C51.2832 52.3908 50.0678 52.3775 49.3274 51.627L43.212 45.4308C42.4717 44.6804 42.4851 43.4784 43.2428 42.7451C44.0005 42.0099 45.2159 42.0232 45.9563 42.7737L52.0717 48.9699C52.437 49.3394 52.6178 49.8194 52.6178 50.2994Z" fill="#F9C900"/>
<path fill-rule="evenodd" clip-rule="evenodd" d="M39.4107 57.3066C39.4107 58.1447 38.8473 58.9104 37.9915 59.1389C36.9684 59.4113 35.9146 58.8113 35.6396 57.798L33.3627 49.4323C33.0877 48.4189 33.6934 47.377 34.7165 47.1028C35.7396 46.8304 36.7934 47.4304 37.0684 48.4437L39.3434 56.8094C39.3896 56.9751 39.4107 57.1428 39.4107 57.3066Z" fill="#F9C900"/>
<mask id="mask1_2025_173" style="mask-type:luminance" maskUnits="userSpaceOnUse" x="33" y="14" width="67" height="39">
<path fill-rule="evenodd" clip-rule="evenodd" d="M99.3441 52.738V14.8789H33.0239V52.738H99.3441Z" fill="white"/>
</mask>
<g mask="url(#mask1_2025_173)">
<path fill-rule="evenodd" clip-rule="evenodd" d="M89.3008 32.5741C94.8393 32.5741 99.3451 37.096 99.3451 42.658C99.3451 48.216 94.8393 52.738 89.3008 52.738H45.6297C38.6797 52.738 33.0239 47.0599 33.0239 40.0808C33.0239 33.1018 38.6797 27.4237 45.6297 27.4237C46.9239 27.4237 48.2105 27.6237 49.4489 28.018L50.2585 28.2751L50.5432 27.4732C53.2124 19.9399 60.3451 14.8789 68.2912 14.8789C78.0066 14.8789 86.0701 22.1856 87.0489 31.877L87.1393 32.7741L88.0316 32.6637C88.5239 32.6027 88.9278 32.5741 89.3008 32.5741Z" fill="#BAC6D1"/>
</g>
<mask id="mask2_2025_173" style="mask-type:luminance" maskUnits="userSpaceOnUse" x="6" y="23" width="74" height="43">
<path fill-rule="evenodd" clip-rule="evenodd" d="M6.62842 65.2622H79.8957V23.5811H6.62842V65.2622Z" fill="white"/>
</mask>
<g mask="url(#mask2_2025_173)">
<path fill-rule="evenodd" clip-rule="evenodd" d="M17.7246 43.063C11.6073 43.063 6.62842 48.042 6.62842 54.1639C6.62842 60.282 11.6073 65.263 17.7246 65.263H65.9688C73.6496 65.263 79.8957 59.0115 79.8957 51.3277C79.8957 43.6439 73.6496 37.3925 65.9688 37.3925C64.54 37.3925 63.1188 37.6134 61.7496 38.0458L60.8573 38.3296L60.5419 37.4458C57.5938 29.1525 49.713 23.5811 40.9342 23.5811C30.2015 23.5811 21.2938 31.6268 20.213 42.2953L20.113 43.2839L19.1284 43.162C18.5823 43.0934 18.1361 43.063 17.7246 43.063Z" fill="#D6E3F2"/>
</g>
</g>
<defs>
<clipPath id="clip0_2025_173">
<rect width="100" height="66" fill="white"/>
</clipPath>
</defs>
</svg>
