<svg width="66" height="70" viewBox="0 0 66 70" fill="none" xmlns="http://www.w3.org/2000/svg">
<g clip-path="url(#clip0_2025_421)">
<path fill-rule="evenodd" clip-rule="evenodd" d="M20.6247 2.39156C17.3057 15.5995 12.2797 54.6198 64.152 53.6681C65.5566 53.6423 66.4079 55.1827 65.5933 56.3213C62.0474 61.2732 52.4016 70.8097 31.4547 69.0545C31.4547 69.0545 1.35893 65.3572 0.0602846 31.667C0.0602846 31.667 -1.14977 12.0354 17.9086 0.404348C19.298 -0.442097 21.0201 0.821126 20.6247 2.39156Z" fill="#ADC1E3"/>
<path fill-rule="evenodd" clip-rule="evenodd" d="M18.0246 35.665C18.4589 39.2828 15.8595 42.5634 12.2228 42.9952C8.58404 43.427 5.28232 40.8425 4.85016 37.2269C4.41584 33.6091 7.01313 30.3264 10.6519 29.8968C14.2907 29.4649 17.5903 32.0472 18.0246 35.665Z" fill="#8AA1C4"/>
<path fill-rule="evenodd" clip-rule="evenodd" d="M26.9369 54.9661C27.2654 57.701 25.3012 60.1801 22.5505 60.5067C19.7998 60.8332 17.3062 58.8804 16.9778 56.1456C16.6493 53.4107 18.6135 50.9315 21.3642 50.605C24.1149 50.2784 26.6085 52.2313 26.9369 54.9661Z" fill="#8AA1C4"/>
<path fill-rule="evenodd" clip-rule="evenodd" d="M36.8401 54.626C37.1123 56.9075 35.4744 58.9763 33.1818 59.247C30.887 59.5199 28.8062 57.8914 28.5339 55.6099C28.2595 53.3305 29.8974 51.2595 32.1922 50.9888C34.4848 50.716 36.5656 52.3444 36.8401 54.626Z" fill="#8AA1C4"/>
<path fill-rule="evenodd" clip-rule="evenodd" d="M53.2961 58.9084C53.5013 60.6271 52.2675 62.1868 50.5389 62.393C48.8102 62.5971 47.2415 61.3682 47.034 59.6496C46.8288 57.9309 48.0626 56.3712 49.7912 56.1671C51.522 55.9609 53.0908 57.1897 53.2961 58.9084Z" fill="#8AA1C4"/>
<path fill-rule="evenodd" clip-rule="evenodd" d="M16.6198 22.0031C16.8251 23.7218 15.5912 25.2815 13.8626 25.4877C12.134 25.6918 10.5652 24.463 10.3578 22.7443C10.1525 21.0256 11.3863 19.4659 13.115 19.2619C14.8458 19.0556 16.4145 20.2845 16.6198 22.0031Z" fill="#8AA1C4"/>
<path fill-rule="evenodd" clip-rule="evenodd" d="M42.3987 16.8379C44.0733 16.8379 44.7821 22.1271 45.6204 22.9112C46.4588 23.6954 51.8479 22.4064 52.427 24.0821C53.0061 25.7556 48.14 27.9878 47.6106 29.0039C47.0812 30.0201 50.0739 34.7958 48.5959 35.8013C47.1179 36.8067 43.5504 32.77 42.3987 32.77C41.247 32.77 37.6168 36.9141 36.2015 35.8013C34.7862 34.6884 37.714 30.0201 37.1846 29.0039C36.6574 27.9878 31.7826 25.7363 32.3704 24.0821C32.9581 22.4257 38.3385 23.6954 39.1769 22.9112C40.0153 22.1271 40.7241 16.8379 42.3987 16.8379Z" fill="#F9C900"/>
<path fill-rule="evenodd" clip-rule="evenodd" d="M52.4747 1.6709C53.581 1.6709 54.0477 5.16195 54.6009 5.6797C55.1541 6.19745 58.7086 5.34456 59.0911 6.45095C59.4735 7.5552 56.2647 9.02895 55.9147 9.69924C55.5646 10.3695 57.5396 13.5211 56.5651 14.185C55.5884 14.8488 53.2353 12.1849 52.4747 12.1849C51.7141 12.1849 49.3199 14.9197 48.3842 14.185C47.4508 13.4502 49.3847 10.3695 49.0347 9.69924C48.6846 9.02895 45.4693 7.5423 45.8583 6.45095C46.245 5.35959 49.7953 6.19745 50.3484 5.6797C50.9016 5.16195 51.3705 1.6709 52.4747 1.6709Z" fill="#F9C900"/>
</g>
<defs>
<clipPath id="clip0_2025_421">
<rect width="66" height="70" fill="white"/>
</clipPath>
</defs>
</svg>
