<svg width="90" height="76" viewBox="0 0 90 76" fill="none" xmlns="http://www.w3.org/2000/svg">
<g clip-path="url(#clip0_2025_378)">
<path fill-rule="evenodd" clip-rule="evenodd" d="M21.5276 2.39257C18.097 16.2232 12.902 57.083 66.5185 56.0864C67.9703 56.0594 68.8503 57.6724 68.0082 58.8647C64.3431 64.05 54.3729 74.0361 32.7217 72.1981C32.7217 72.1981 1.61405 68.3265 0.271739 33.0481C0.271739 33.0481 -0.979 12.4911 18.7202 0.31168C20.1563 -0.574668 21.9363 0.748105 21.5276 2.39257Z" fill="#ADC1E3"/>
<path fill-rule="evenodd" clip-rule="evenodd" d="M18.8403 37.2341C19.2892 41.0225 16.6023 44.4576 12.8434 44.9098C9.08227 45.362 5.66954 42.6557 5.22285 38.8696C4.77392 35.0812 7.45855 31.6438 11.2197 31.1939C14.9809 30.7417 18.3914 33.4458 18.8403 37.2341Z" fill="#8AA1C4"/>
<path fill-rule="evenodd" clip-rule="evenodd" d="M28.0523 57.4459C28.3918 60.3096 26.3616 62.9057 23.5184 63.2476C20.6752 63.5896 18.0977 61.5447 17.7583 58.6809C17.4188 55.8171 19.449 53.2211 22.2922 52.8791C25.1354 52.5372 27.7128 54.5821 28.0523 57.4459Z" fill="#8AA1C4"/>
<path fill-rule="evenodd" clip-rule="evenodd" d="M38.2883 57.0889C38.5698 59.478 36.8768 61.6443 34.5071 61.9278C32.1351 62.2135 29.9843 60.5083 29.7029 58.1192C29.4193 55.7324 31.1122 53.5637 33.4842 53.2803C35.8539 52.9946 38.0047 54.6998 38.2883 57.0889Z" fill="#8AA1C4"/>
<path fill-rule="evenodd" clip-rule="evenodd" d="M55.2979 61.5739C55.5101 63.3735 54.2348 65.0068 52.448 65.2227C50.6612 65.4364 49.0397 64.1497 48.8253 62.35C48.6131 60.5503 49.8884 58.9171 51.6752 58.7033C53.4642 58.4874 55.0857 59.7742 55.2979 61.5739Z" fill="#8AA1C4"/>
<path fill-rule="evenodd" clip-rule="evenodd" d="M17.3887 22.9293C17.6009 24.729 16.3256 26.3622 14.5388 26.5782C12.752 26.7919 11.1305 25.5051 10.9161 23.7054C10.704 21.9057 11.9793 20.2725 13.766 20.0588C15.555 19.8429 17.1765 21.1296 17.3887 22.9293Z" fill="#8AA1C4"/>
<path fill-rule="evenodd" clip-rule="evenodd" d="M17.3724 48.7845C10.2678 48.7845 4.48535 54.6649 4.48535 61.8952C4.48535 69.121 10.2678 75.0037 17.3724 75.0037H73.4034C82.3238 75.0037 89.5781 67.6205 89.5781 58.5455C89.5781 49.4706 82.3238 42.0873 73.4034 42.0873C71.7439 42.0873 70.0934 42.3483 68.5031 42.859L67.4668 43.1942L67.1005 42.1503C63.6766 32.3555 54.5239 25.7754 44.3281 25.7754C31.8632 25.7754 21.5177 35.2778 20.2625 47.8779L20.1464 49.0454L19.0029 48.9014C18.3686 48.8204 17.8504 48.7845 17.3724 48.7845Z" fill="#D6E3F2"/>
</g>
<defs>
<clipPath id="clip0_2025_378">
<rect width="90" height="75.4545" fill="white"/>
</clipPath>
</defs>
</svg>
