<svg width="100" height="84" viewBox="0 0 100 84" fill="none" xmlns="http://www.w3.org/2000/svg">
<g clip-path="url(#clip0_2025_388)">
<path fill-rule="evenodd" clip-rule="evenodd" d="M34.3701 3.00229C31.2038 15.75 26.4089 53.4103 75.8956 52.4917C77.2355 52.4669 78.0477 53.9535 77.2705 55.0525C73.8877 59.8318 64.6855 69.0359 44.702 67.3419C44.702 67.3419 15.9904 63.7735 14.7515 31.2574C14.7515 31.2574 13.5971 12.3101 31.7789 1.08434C33.1044 0.267393 34.7473 1.48659 34.3701 3.00229Z" fill="#ADC1E3"/>
<path fill-rule="evenodd" clip-rule="evenodd" d="M31.8897 35.1157C32.304 38.6074 29.8241 41.7736 26.3547 42.1904C22.8833 42.6071 19.7334 40.1127 19.3211 36.6231C18.9068 33.1314 21.3846 29.9631 24.8561 29.5484C28.3275 29.1317 31.4753 31.624 31.8897 35.1157Z" fill="#8AA1C4"/>
<path fill-rule="evenodd" clip-rule="evenodd" d="M40.3918 53.7445C40.7051 56.384 38.8313 58.7768 36.2071 59.092C33.5829 59.4072 31.204 57.5224 30.8907 54.8829C30.5773 52.2433 32.4512 49.8506 35.0754 49.5354C37.6996 49.2202 40.0785 51.105 40.3918 53.7445Z" fill="#8AA1C4"/>
<path fill-rule="evenodd" clip-rule="evenodd" d="M49.8395 53.4161C50.0992 55.6182 48.5367 57.6149 46.3495 57.8762C44.1603 58.1395 42.1751 56.5678 41.9154 54.3658C41.6536 52.1658 43.2161 50.167 45.4054 49.9058C47.5925 49.6424 49.5777 51.2141 49.8395 53.4161Z" fill="#8AA1C4"/>
<path fill-rule="evenodd" clip-rule="evenodd" d="M65.5393 57.5494C65.7351 59.2082 64.558 60.7135 62.9089 60.9125C61.2597 61.1095 59.7631 59.9235 59.5652 58.2647C59.3694 56.606 60.5465 55.1006 62.1956 54.9036C63.8468 54.7046 65.3434 55.8906 65.5393 57.5494Z" fill="#8AA1C4"/>
<path fill-rule="evenodd" clip-rule="evenodd" d="M30.5495 21.9302C30.7454 23.589 29.5683 25.0943 27.9191 25.2934C26.27 25.4904 24.7734 24.3044 24.5755 22.6456C24.3797 20.9868 25.5567 19.4815 27.2059 19.2845C28.8571 19.0854 30.3537 20.2715 30.5495 21.9302Z" fill="#8AA1C4"/>
<path fill-rule="evenodd" clip-rule="evenodd" d="M88.6201 47.7605C94.5571 47.7605 99.387 52.6829 99.387 58.7375C99.387 64.7878 94.5571 69.7102 88.6201 69.7102H41.8071C34.3571 69.7102 28.2944 63.5292 28.2944 55.9321C28.2944 48.3349 34.3571 42.1539 41.8071 42.1539C43.1945 42.1539 44.5736 42.3716 45.9011 42.8008L46.769 43.0807L47.0741 42.2078C49.9353 34.0072 57.5812 28.498 66.099 28.498C76.5134 28.498 85.1569 36.4519 86.2062 47.0016L86.3031 47.9782L87.2596 47.858C87.7873 47.7916 88.2202 47.7605 88.6201 47.7605Z" fill="#BAC6D1"/>
<path fill-rule="evenodd" clip-rule="evenodd" d="M11.8945 59.1791C5.33704 59.1791 0 64.5991 0 71.2632C0 77.9232 5.33704 83.3453 11.8945 83.3453H63.6096C71.8429 83.3453 78.5384 76.5402 78.5384 68.1758C78.5384 59.8115 71.8429 53.0064 63.6096 53.0064C62.0779 53.0064 60.5545 53.2469 59.0868 53.7176L58.1303 54.0265L57.7922 53.0644C54.632 44.0366 46.1843 37.9717 36.7739 37.9717C25.269 37.9717 15.7205 46.73 14.5619 58.3435L14.4548 59.4196L13.3993 59.2869C12.8139 59.2123 12.3356 59.1791 11.8945 59.1791Z" fill="#D6E3F2"/>
</g>
<defs>
<clipPath id="clip0_2025_388">
<rect width="100" height="84" fill="white"/>
</clipPath>
</defs>
</svg>
