<svg width="100" height="81" viewBox="0 0 100 81" fill="none" xmlns="http://www.w3.org/2000/svg">
<g clip-path="url(#clip0_2025_80)">
<path fill-rule="evenodd" clip-rule="evenodd" d="M22.8702 51.8789C22.8702 51.8789 20.1429 59.1636 20.8248 61.9453C21.3866 64.2459 23.7519 65.6556 26.1025 65.0888C28.4573 64.5199 29.9009 62.19 29.337 59.8893C28.6573 57.1056 22.8702 51.8789 22.8702 51.8789Z" fill="#38A1E8"/>
<path fill-rule="evenodd" clip-rule="evenodd" d="M39.7306 51.54C39.7306 51.54 37.0033 58.8247 37.6851 61.6064C38.247 63.9071 40.6123 65.3167 42.9629 64.7499C45.3177 64.1811 46.7613 61.8511 46.1973 59.5505C45.5176 56.7667 39.7306 51.54 39.7306 51.54Z" fill="#38A1E8"/>
<path fill-rule="evenodd" clip-rule="evenodd" d="M57.2496 51.1885C57.2496 51.1885 54.5223 58.4732 55.2042 61.2549C55.766 63.5555 58.1313 64.9652 60.4819 64.3984C62.8367 63.8295 64.2803 61.4996 63.7164 59.1989C63.0366 56.4151 57.2496 51.1885 57.2496 51.1885Z" fill="#38A1E8"/>
<path fill-rule="evenodd" clip-rule="evenodd" d="M73.7535 50.3711C73.7535 50.3711 71.0262 57.6558 71.7081 60.4375C72.2699 62.7381 74.6352 64.1478 76.9858 63.581C79.3406 63.0121 80.7842 60.6822 80.2203 58.3815C79.5406 55.5977 73.7535 50.3711 73.7535 50.3711Z" fill="#38A1E8"/>
<path fill-rule="evenodd" clip-rule="evenodd" d="M32.7608 67.2578C32.7608 67.2578 30.0336 74.5425 30.7154 77.3242C31.2773 79.6248 33.6426 81.0345 35.9932 80.4677C38.348 79.8988 39.7916 77.5689 39.2276 75.2683C38.5479 72.4845 32.7608 67.2578 32.7608 67.2578Z" fill="#38A1E8"/>
<path fill-rule="evenodd" clip-rule="evenodd" d="M50.2804 66.9062C50.2804 66.9062 47.5531 74.1909 48.2349 76.9726C48.7968 79.2733 51.1621 80.683 53.5127 80.1162C55.8675 79.5473 57.3111 77.2173 56.7471 74.9167C56.0674 72.1329 50.2804 66.9062 50.2804 66.9062Z" fill="#38A1E8"/>
<path fill-rule="evenodd" clip-rule="evenodd" d="M66.7838 66.0889C66.7838 66.0889 64.0565 73.3736 64.7383 76.1552C65.3002 78.4559 67.6655 79.8656 70.0161 79.2988C72.3709 78.7299 73.8145 76.4 73.2505 74.0993C72.5708 71.3155 66.7838 66.0889 66.7838 66.0889Z" fill="#38A1E8"/>
<path fill-rule="evenodd" clip-rule="evenodd" d="M88.9604 24.0863C95.021 24.0863 99.9516 29.0515 99.9516 35.1587C99.9516 41.2617 95.021 46.2269 88.9604 46.2269H41.1721C33.5669 46.2269 27.3779 39.9921 27.3779 32.3289C27.3779 24.6656 33.5669 18.4309 41.1721 18.4309C42.5884 18.4309 43.9962 18.6505 45.3514 19.0834L46.2374 19.3658L46.5488 18.4852C49.4697 10.2134 57.2748 4.65625 65.9701 4.65625C76.6014 4.65625 85.4251 12.6792 86.4962 23.3208L86.5951 24.3059L87.5715 24.1846C88.1103 24.1176 88.5522 24.0863 88.9604 24.0863Z" fill="#BAC6D1"/>
<path fill-rule="evenodd" clip-rule="evenodd" d="M12.1423 22.0413C5.44823 22.0413 0 27.5084 0 34.2305C0 40.9484 5.44823 46.4177 12.1423 46.4177H64.9348C73.3396 46.4177 80.1747 39.5534 80.1747 31.1163C80.1747 22.6792 73.3396 15.8149 64.9348 15.8149C63.3712 15.8149 61.8161 16.0575 60.3178 16.5323L59.3413 16.8439L58.9962 15.8734C55.7702 6.76705 47.1465 0.649414 37.54 0.649414C25.7955 0.649414 16.048 9.4839 14.8653 21.1984L14.7559 22.2839L13.6785 22.15C13.0808 22.0747 12.5926 22.0413 12.1423 22.0413Z" fill="#D6E3F2"/>
</g>
<defs>
<clipPath id="clip0_2025_80">
<rect width="100" height="81" fill="white"/>
</clipPath>
</defs>
</svg>
