<svg height="1575" image-rendering="optimizeQuality" shape-rendering="geometricPrecision" text-rendering="geometricPrecision" viewBox="3.1 -.4 2493.7 1568.8" width="2500" xmlns="http://www.w3.org/2000/svg" xmlns:xlink="http://www.w3.org/1999/xlink"><linearGradient id="a" gradientTransform="matrix(.2343 0 0 -.2343 225.252 545.481)" gradientUnits="userSpaceOnUse" x1="2189.041" x2="5980.201" y1="-3096.413" y2="594.977"><stop offset="0" stop-color="#9d141c"/><stop offset=".6" stop-color="#c04215"/><stop offset="1" stop-color="#e4700d"/></linearGradient><g clip-rule="evenodd" fill-rule="evenodd"><path d="m3.2 652.8h165c20.3 0 157-2.9 163.7 1.7 3.7 3.9 2.3 12.4 2.3 19.5 0 12.1 2 56.2-2.3 59.8-6.8 3.5-294.2 1.4-328.8 1.4v248.7l82.9-.1v-165.5l152.5-.2 95.9 165.9 95.4.1c-5.3-14.9-91.3-155.2-94.1-165.7 30.2-.9 49.2-14.4 62.5-29.9 18.3-21.2 19.2-40.8 19.2-74.1 0-53.8 10.1-110.1-48.3-137.3-23-10.7-56.9-7.6-85.3-7.6h-280.6zm1010.4-.5 285.9.5c-3.5 5.5-33.7 30.1-41.1 36.7-6.4 5.7-13.3 11.8-20.2 17.4l-103.4 89c-33.5 27.2-69.5 61.4-102.6 88.4-3.8 3.1-6.7 6-10.5 9-4.2 3.2-7.5 4.5-7.9 12-1.4 24.1.1 53.6.1 78.4l413.9.1v-82.6l-286-.3c2.9-4.9 33.4-29.8 40-35.9 6.6-6 13.2-11.3 20.3-17.4 6.9-5.9 13.8-12.4 21-18l30.8-26.3c35.8-31.5 81.9-68.7 114.4-98.7l41.2-35.5c9.4-7.6 18-12.7 18.4-20.9 1.1-22.4.9-55.7-.3-78.2-33.1-1.5-69.3-.2-102.8-.2-46.3 0-302.1-2-311 1zm1483.2 331.5v-414.1h-82.3l-.7 285.6c-7-3.7-133.4-153.6-143.8-165-27.8-30.4-62-74.6-88.9-103.4-3.1-3.3-5.9-6.5-9.1-10.4-3.6-4.3-3.6-6.9-11.7-7-24.5-.2-53-1-77.1.2l-.7 413.4 83.2.6v-285.9c5.6 3.6 189.2 218.6 216.1 249.6l31.8 36zm-953.6 0 413.9.4-.1-83.1-150.8.1-179.6-.1-.5-82.4 178.6-.1 152.4-.6-.1-82.5-160 .2-254-.2zm-807.9.1 14.8-.3c.3-78.2.5-64.4 0-152.3-.1-18.2 4.4-19.7 20.9-41.8 9.8-13.1 156.2-214.1 158-219.6h-102.3l-117.9 162.8c-3.9-4.1-22.7-29.5-24.5-34.3-6.2-5.4-18.2-24.5-23.8-32-8.2-10.9-15.5-20.8-23-31.6-5.9-8.4-44.2-59.7-45.3-64.6l-103.2-.3c1.7 5.4 110.7 155.8 123.1 172.3 10.9 14.4 20.8 28.9 31.1 43 5.6 7.6 9.9 13.8 15.2 21.2 9.1 12.5 8.8 9.2 8.8 28.9-.1 47.9-2.1 100.9 0 148.1zm808-414.1-.3 83 240.4.1 173.9-.5-.6-83.2z" fill="#f0f0f0"/></g></svg>