<svg width="100" height="83" viewBox="0 0 100 83" fill="none" xmlns="http://www.w3.org/2000/svg">
<g clip-path="url(#clip0_2025_235)">
<path fill-rule="evenodd" clip-rule="evenodd" d="M62.9447 51.2432C62.9447 51.2432 60.2 58.7157 60.8936 61.5759C61.4681 63.9374 63.8638 65.3889 66.2383 64.8113C68.6191 64.2316 70.0745 61.8402 69.5021 59.4787C68.8085 56.6205 62.9447 51.2432 62.9447 51.2432Z" fill="#38A1E8"/>
<path fill-rule="evenodd" clip-rule="evenodd" d="M79.9979 50.9268C79.9979 50.9268 77.2532 58.3992 77.9468 61.2574C78.5213 63.621 80.917 65.0725 83.2915 64.4949C85.6724 63.9152 87.1277 61.5238 86.5553 59.1623C85.8617 56.3041 79.9979 50.9268 79.9979 50.9268Z" fill="#38A1E8"/>
<path fill-rule="evenodd" clip-rule="evenodd" d="M14.3851 52.2012C14.3851 52.2012 11.6404 59.6737 12.334 62.5318C12.9085 64.8955 15.3042 66.3469 17.6787 65.7693C20.0596 65.1896 21.5149 62.7982 20.9425 60.4367C20.2489 57.5786 14.3851 52.2012 14.3851 52.2012Z" fill="#38A1E8"/>
<path fill-rule="evenodd" clip-rule="evenodd" d="M26.2075 68.4521C26.2075 68.4521 23.4501 75.8756 24.1394 78.7103C24.7075 81.0548 27.099 82.4913 29.4756 81.9137C31.8565 81.334 33.316 78.9597 32.7458 76.6152C32.0586 73.7784 26.2075 68.4521 26.2075 68.4521Z" fill="#38A1E8"/>
<path fill-rule="evenodd" clip-rule="evenodd" d="M56.6875 67.4756C56.6875 67.4756 53.9301 74.8991 54.6194 77.7337C55.1875 80.0782 57.579 81.5147 59.9556 80.9372C62.3364 80.3574 63.796 77.9831 63.2258 75.6386C62.5386 72.8018 56.6875 67.4756 56.6875 67.4756Z" fill="#38A1E8"/>
<path fill-rule="evenodd" clip-rule="evenodd" d="M74.7085 66.6426C74.7085 66.6426 71.9511 74.066 72.6404 76.9007C73.2085 79.2452 75.6 80.6817 77.9766 80.1041C80.3574 79.5244 81.817 77.1501 81.2468 74.8056C80.5596 71.9688 74.7085 66.6426 74.7085 66.6426Z" fill="#38A1E8"/>
<path fill-rule="evenodd" clip-rule="evenodd" d="M28.346 56.8844H42.3736L41.6332 54.8234C40.2949 51.0978 39.08 47.7217 38.697 46.6646C38.0587 44.8998 38.0332 43.5272 38.6268 42.7003C39.1119 42.0225 39.8821 41.8818 40.0609 41.8818H44.3077C46.9694 41.8818 48.5949 44.5396 49.1758 46.8138C49.3566 47.5235 49.5673 48.3398 49.797 49.2328C50.7226 52.822 51.9907 57.739 52.8715 61.5733C53.4949 64.2865 52.88 65.4225 52.5864 65.7849C52.3141 66.1216 51.9353 66.2836 51.4268 66.2836H36.829L41.9396 80.879C42.1758 81.5504 42.1396 81.9212 42.097 82.0385C41.9034 82.0662 41.2077 81.9063 40.58 81.0048C37.6077 76.7314 30.1162 65.6804 26.846 60.6483C26.0545 59.4292 25.8034 58.4253 26.1396 57.82C26.446 57.2701 27.3524 56.8844 28.346 56.8844Z" fill="#F9C900"/>
<path fill-rule="evenodd" clip-rule="evenodd" d="M88.0729 24.89C94.2006 24.89 99.1857 29.9498 99.1857 36.1734C99.1857 42.3926 94.2006 47.4524 88.0729 47.4524H39.7559C32.0665 47.4524 25.8091 41.0989 25.8091 33.2896C25.8091 25.4804 32.0665 19.1269 39.7559 19.1269C41.1878 19.1269 42.6112 19.3507 43.9814 19.7919L44.8772 20.0796L45.1921 19.1823C48.1453 10.7528 56.0367 5.08984 64.8282 5.08984C75.5772 5.08984 84.4984 13.2657 85.5814 24.11L85.6814 25.1138L86.6687 24.9902C87.2133 24.922 87.6601 24.89 88.0729 24.89Z" fill="#D6E3F2"/>
<path fill-rule="evenodd" clip-rule="evenodd" d="M12.2766 22.6773C5.50851 22.6773 0 28.2486 0 35.0988C0 41.9447 5.50851 47.5181 12.2766 47.5181H65.6532C74.1511 47.5181 81.0617 40.523 81.0617 31.9252C81.0617 23.3274 74.1511 16.3323 65.6532 16.3323C64.0723 16.3323 62.5 16.5795 60.9851 17.0634L59.9979 17.3809L59.6489 16.392C56.3872 7.11211 47.6681 0.87793 37.9553 0.87793C26.0809 0.87793 16.2255 9.88072 15.0298 21.8184L14.9191 22.9245L13.8298 22.7881C13.2255 22.7114 12.7319 22.6773 12.2766 22.6773Z" fill="#BAC6D1"/>
</g>
<defs>
<clipPath id="clip0_2025_235">
<rect width="100" height="83" fill="white"/>
</clipPath>
</defs>
</svg>
